<?xml version="1.0" encoding="UTF-8"?>
<svg width="28px" height="28px" viewBox="0 0 28 28" version="1.1" xmlns="http://www.w3.org/2000/svg" xmlns:xlink="http://www.w3.org/1999/xlink">
    <!-- Generator: Sketch 40.3 (33839) - http://www.bohemiancoding.com/sketch -->
    <title>DRIBBBLE</title>
    <desc>Created with Sketch.</desc>
    <defs></defs>
    <g id="Symbols" stroke="none" stroke-width="1" fill="none" fill-rule="evenodd">
        <g id="footer" transform="translate(-1120.000000, -22.000000)" fill="#D8D8D8">
            <path d="M1143.233,28.405 C1143.21113,28.4365 1141.29225,31.207625 1136.5725,33.13525 C1136.84987,33.70575 1137.11937,34.285875 1137.36787,34.868625 C1137.45625,35.07775 1137.54288,35.2825 1137.626,35.488125 C1141.73325,34.971 1145.77925,35.839875 1145.9525,35.876625 C1145.92362,33.0425 1144.9095,30.442 1143.233,28.405 L1143.233,28.405 Z M1138.354,37.3755 C1139.922,41.684875 1140.559,45.1945 1140.68062,45.9155 C1143.36425,44.10425 1145.27175,41.228125 1145.80375,37.896125 C1145.557,37.815625 1142.21275,36.756875 1138.354,37.3755 L1138.354,37.3755 Z M1138.66725,47.0075 C1138.4905,45.96275 1137.79662,42.30175 1136.114,37.929375 C1136.08687,37.939 1136.06063,37.946875 1136.0335,37.9565 C1128.98013,40.414375 1126.67625,45.370375 1126.65175,45.4255 C1128.68088,47.004 1131.22712,47.956875 1134,47.956875 C1135.6555,47.955125 1137.23225,47.61825 1138.66725,47.0075 L1138.66725,47.0075 Z M1135.652,31.35375 C1140.16262,29.66325 1141.86538,27.070625 1141.89513,27.026875 C1139.79075,25.171 1137.02662,24.04575 1134,24.04575 C1133.02875,24.04575 1132.0855,24.163 1131.1825,24.380875 C1131.36188,24.620625 1133.60712,27.6 1135.652,31.35375 L1135.652,31.35375 Z M1135.2985,35.948375 C1134.99837,35.2685 1134.67113,34.58775 1134.329,33.916625 C1128.1725,35.76025 1122.26625,35.62725 1122.0545,35.619375 C1122.051,35.747125 1122.044,35.871375 1122.044,36 C1122.044,39.07125 1123.2025,41.872125 1125.10738,43.987 C1125.103,43.98175 1128.3755,38.177 1134.82687,36.090125 C1134.98175,36.039375 1135.141,35.993 1135.2985,35.948375 L1135.2985,35.948375 Z M1147.71387,33.181625 C1147.90287,34.102125 1148,35.050625 1148,36 C1148,36.947625 1147.90375,37.894375 1147.71387,38.8175 C1147.52925,39.71875 1147.25537,40.603375 1146.8975,41.4495 C1146.5475,42.279875 1146.11438,43.0805 1145.60687,43.826875 C1145.10725,44.568875 1144.5315,45.263625 1143.89888,45.898875 C1143.2645,46.52975 1142.568,47.104625 1141.82775,47.60775 C1141.07963,48.11175 1140.279,48.544875 1139.4495,48.8975 C1138.60425,49.2545 1137.71875,49.5275 1136.81925,49.712125 C1135.89612,49.902875 1134.94763,50 1134,50 C1133.05063,50 1132.10212,49.90375 1131.18075,49.712125 C1130.28038,49.5275 1129.39487,49.253625 1128.54963,48.8975 C1127.71925,48.544875 1126.91863,48.11175 1126.1705,47.60775 C1125.43025,47.1055 1124.73375,46.52975 1124.10112,45.898875 C1123.46762,45.263625 1122.89275,44.568875 1122.39225,43.826875 C1121.88738,43.0805 1121.4525,42.279 1121.10163,41.4495 C1120.74375,40.60425 1120.469,39.71875 1120.2835,38.8175 C1120.09538,37.89525 1120,36.9485 1120,36 C1120,35.050625 1120.09538,34.102125 1120.2835,33.181625 C1120.469,32.280375 1120.74287,31.394875 1121.10075,30.5505 C1121.4525,29.718375 1121.8865,28.91775 1122.39137,28.171375 C1122.891,27.4285 1123.46762,26.734625 1124.10025,26.099375 C1124.73287,25.467625 1125.42937,24.8945 1126.16962,24.39225 C1126.91775,23.885625 1127.71837,23.45075 1128.54875,23.099 C1129.394,22.741125 1130.2795,22.46725 1131.17988,22.2835 C1132.10212,22.095375 1133.05063,22 1134,22 C1134.94763,22 1135.89612,22.095375 1136.81925,22.284375 C1137.71875,22.468125 1138.60337,22.742 1139.4495,23.099875 C1140.27987,23.451625 1141.07963,23.8865 1141.82775,24.393125 C1142.568,24.8945 1143.26537,25.4685 1143.89888,26.10025 C1144.53063,26.7355 1145.10725,27.429375 1145.60687,28.17225 C1146.11438,28.918625 1146.54838,29.720125 1146.8975,30.551375 C1147.25625,31.394875 1147.53012,32.280375 1147.71387,33.181625 L1147.71387,33.181625 Z M1133.3385,32.075625 C1131.26913,28.398875 1129.058,25.3985 1128.89875,25.18675 C1125.56413,26.760875 1123.0765,29.833875 1122.30038,33.536 C1122.61538,33.53775 1127.59763,33.60075 1133.3385,32.075625 L1133.3385,32.075625 Z" id="DRIBBBLE"></path>
        </g>
    </g>
</svg>