<?xml version="1.0" encoding="UTF-8"?>
<svg width="30px" height="24px" viewBox="0 0 30 24" version="1.1" xmlns="http://www.w3.org/2000/svg" xmlns:xlink="http://www.w3.org/1999/xlink">
    <!-- Generator: Sketch 40.1 (33804) - http://www.bohemiancoding.com/sketch -->
    <title>Slice 1</title>
    <desc>Created with Sketch.</desc>
    <defs></defs>
    <g id="Page-1" stroke="none" stroke-width="1" fill="none" fill-rule="evenodd">
        <g id="Icon_arrow" transform="translate(0.000000, 1.000000)" fill="#FFFFFF">
            <g id="Site">
                <g id="Project">
                    <g id="Arrow_back" transform="translate(14.000000, 11.000000) scale(-1, 1) translate(-14.000000, -11.000000) ">
                        <g id="noun_12934-copy" transform="translate(14.000000, 11.000000) rotate(0.000000) translate(-14.000000, -11.000000) translate(0.000000, 0.000000)">
                            <g id="Group" transform="translate(-0.000000, 0.000000)">
                                <path d="M0.739061728,12.4475312 L9.70701235,21.3657812 C10.4785679,22.1326875 11.7299259,22.1326875 12.5004444,21.3657812 C13.272,20.5992187 13.272,19.3548437 12.5004444,18.5875937 L6.90493827,13.0229687 L25.8896296,13.0229687 C26.9805926,13.0229687 27.8651852,12.1433125 27.8651852,11.0584375 C27.8651852,9.9735625 26.9805926,9.09390625 25.8896296,9.09390625 L6.90493827,9.09390625 L12.5007901,3.52928125 C13.2723457,2.76271875 13.2723457,1.518 12.5007901,0.75109375 C12.115358,0.3678125 11.609284,0.17565625 11.1039012,0.17565625 C10.5985185,0.17565625 10.0924444,0.3678125 9.70701235,0.75109375 L0.739061728,9.66934375 C-0.0328395062,10.43625 -0.0328395062,11.6802812 0.739061728,12.4475312 L0.739061728,12.4475312 L0.739061728,12.4475312 Z" id="Shape"></path>
                            </g>
                        </g>
                    </g>
                </g>
            </g>
        </g>
    </g>
</svg>