<?xml version="1.0" encoding="UTF-8"?>
<svg width="28px" height="28px" viewBox="0 0 28 28" version="1.1" xmlns="http://www.w3.org/2000/svg" xmlns:xlink="http://www.w3.org/1999/xlink">
    <!-- Generator: Sketch 40.3 (33839) - http://www.bohemiancoding.com/sketch -->
    <title>Group</title>
    <desc>Created with Sketch.</desc>
    <defs></defs>
    <g id="Symbols" stroke="none" stroke-width="1" fill="none" fill-rule="evenodd">
        <g id="footer" transform="translate(-905.000000, -22.000000)" fill="#D8D8D8">
            <g id="Group" transform="translate(905.000000, 22.000000)">
                <path d="M14.112,6.97254902 C10.192,6.97254902 6.944,10.1019608 6.944,14 C6.944,17.8980392 10.136,21.027451 14.112,21.027451 C18.088,21.027451 21.28,17.8431373 21.28,14 C21.28,10.1568627 18.032,6.97254902 14.112,6.97254902 L14.112,6.97254902 Z M14.112,18.5019608 C11.592,18.5019608 9.52,16.4705882 9.52,14 C9.52,11.5294118 11.592,9.49803922 14.112,9.49803922 C16.632,9.49803922 18.704,11.5294118 18.704,14 C18.704,16.4705882 16.632,18.5019608 14.112,18.5019608 L14.112,18.5019608 Z" id="Shape"></path>
                <ellipse id="Oval" cx="21.56" cy="6.80784314" rx="1.624" ry="1.59215686"></ellipse>
                <path d="M25.76,2.69019608 C24.304,1.20784314 22.232,0.439215686 19.88,0.439215686 L8.344,0.439215686 C3.472,0.439215686 0.224,3.62352941 0.224,8.4 L0.224,19.654902 C0.224,22.0156863 1.008,24.0470588 2.576,25.5294118 C4.088,26.9568627 6.104,27.6705882 8.4,27.6705882 L19.824,27.6705882 C22.232,27.6705882 24.248,26.9019608 25.704,25.5294118 C27.216,24.1019608 28,22.0705882 28,19.7098039 L28,8.4 C28,6.09411765 27.216,4.11764706 25.76,2.69019608 L25.76,2.69019608 Z M25.424,19.7098039 C25.424,21.4117647 24.92,22.7843137 23.912,23.7176471 C22.904,24.6509804 21.504,25.145098 19.824,25.145098 L8.4,25.145098 C6.72,25.145098 5.32,24.6509804 4.312,23.7176471 C3.304,22.7294118 2.8,21.3568627 2.8,19.654902 L2.8,8.4 C2.8,6.75294118 3.304,5.38039216 4.312,4.39215686 C5.264,3.45882353 6.72,2.96470588 8.4,2.96470588 L19.936,2.96470588 C21.616,2.96470588 23.016,3.45882353 24.024,4.44705882 C24.976,5.43529412 25.536,6.80784314 25.536,8.4 L25.536,19.7098039 L25.424,19.7098039 Z" id="Shape"></path>
            </g>
        </g>
    </g>
</svg>