<?xml version="1.0" encoding="UTF-8"?>
<svg width="30px" height="24px" viewBox="0 0 30 24" version="1.1" xmlns="http://www.w3.org/2000/svg" xmlns:xlink="http://www.w3.org/1999/xlink">
    <!-- Generator: Sketch 40.3 (33839) - http://www.bohemiancoding.com/sketch -->
    <title>twitter</title>
    <desc>Created with Sketch.</desc>
    <defs></defs>
    <g id="Symbols" stroke="none" stroke-width="1" fill="none" fill-rule="evenodd">
        <g id="footer" transform="translate(-858.000000, -24.000000)" fill="#D8D8D8">
            <path d="M888,26.8403077 C886.896287,27.3230769 885.71099,27.6489231 884.464741,27.7938462 C885.735371,27.0443077 886.711553,25.8572308 887.17198,24.4430769 C885.981995,25.1363077 884.665416,25.6421538 883.263503,25.9126154 C882.140098,24.7356923 880.540323,24 878.768942,24 C875.369655,24 872.615529,26.712 872.615529,30.0581538 C872.615529,30.5326154 872.66898,30.996 872.774006,31.4390769 C867.658665,31.1861538 863.123781,28.7741538 860.087397,25.1086154 C859.558515,26.004 859.254689,27.0443077 859.254689,28.1547692 C859.254689,30.2575385 860.341523,32.1110769 861.991935,33.1984615 C860.983871,33.1661538 860.034884,32.8947692 859.204989,32.4406154 C859.204051,32.4655385 859.204051,32.4923077 859.204051,32.5163077 C859.204051,35.4526154 861.325206,37.9015385 864.141223,38.4581538 C863.625469,38.5956923 863.081583,38.6704615 862.51988,38.6704615 C862.122281,38.6704615 861.737809,38.6326154 861.362716,38.5624615 C862.144786,40.968 864.418792,42.72 867.111028,42.7698462 C865.005814,44.3944615 862.352026,45.3646154 859.468492,45.3646154 C858.971493,45.3646154 858.481058,45.336 858,45.2796923 C860.723181,46.9966154 863.958365,48 867.434546,48 C878.754876,48 884.946737,38.7683077 884.946737,30.7615385 C884.946737,30.4993846 884.939235,30.2372308 884.927982,29.9769231 C886.131095,29.1230769 887.173856,28.0569231 888,26.8403077 L888,26.8403077 Z" id="twitter"></path>
        </g>
    </g>
</svg>