<?xml version="1.0" encoding="UTF-8"?>
<svg width="28px" height="22px" viewBox="0 0 28 22" version="1.1" xmlns="http://www.w3.org/2000/svg" xmlns:xlink="http://www.w3.org/1999/xlink">
    <!-- Generator: Sketch 40.3 (33839) - http://www.bohemiancoding.com/sketch -->
    <title>Arrow_back</title>
    <desc>Created with Sketch.</desc>
    <defs></defs>
    <g id="Site" stroke="none" stroke-width="1" fill="none" fill-rule="evenodd">
        <g id="Project" transform="translate(-36.000000, -369.000000)" fill="#000000">
            <g id="Arrow_back" transform="translate(36.000000, 369.000000)">
                <g id="noun_12934-copy" transform="translate(14.000000, 11.000000) scale(-1, 1) rotate(180.000000) translate(-14.000000, -11.000000) ">
                    <g id="Group">
                        <path id="Shape"></path>
                        <path d="M0.739061728,12.4475313 L9.70701235,21.3657813 C10.4785679,22.1326875 11.7299259,22.1326875 12.5004444,21.3657813 C13.272,20.5992188 13.272,19.3548438 12.5004444,18.5875938 L6.90493827,13.0229688 L25.8896296,13.0229688 C26.9805926,13.0229688 27.8651852,12.1433125 27.8651852,11.0584375 C27.8651852,9.9735625 26.9805926,9.09390625 25.8896296,9.09390625 L6.90493827,9.09390625 L12.5007901,3.52928125 C13.2723457,2.76271875 13.2723457,1.518 12.5007901,0.75109375 C12.115358,0.3678125 11.609284,0.17565625 11.1039012,0.17565625 C10.5985185,0.17565625 10.0924444,0.3678125 9.70701235,0.75109375 L0.739061728,9.66934375 C-0.0328395062,10.43625 -0.0328395062,11.6802813 0.739061728,12.4475313 L0.739061728,12.4475313 Z" id="Shape"></path>
                    </g>
                </g>
            </g>
        </g>
    </g>
</svg>