<?xml version="1.0" encoding="UTF-8"?>
<svg width="29px" height="22px" viewBox="0 0 29 22" version="1.1" xmlns="http://www.w3.org/2000/svg" xmlns:xlink="http://www.w3.org/1999/xlink">
    <!-- Generator: Sketch 40.1 (33804) - http://www.bohemiancoding.com/sketch -->
    <title>Shape</title>
    <desc>Created with Sketch.</desc>
    <defs></defs>
    <g id="Page-1" stroke="none" stroke-width="1" fill="none" fill-rule="evenodd">
        <path d="M1.41879012,12.4475312 L10.3867407,21.3657812 C11.1582963,22.1326875 12.4096543,22.1326875 13.1801728,21.3657812 C13.9517284,20.5992187 13.9517284,19.3548437 13.1801728,18.5875937 L7.58466667,13.0229687 L26.569358,13.0229687 C27.660321,13.0229687 28.5449136,12.1433125 28.5449136,11.0584375 C28.5449136,9.9735625 27.660321,9.09390625 26.569358,9.09390625 L7.58466667,9.09390625 L13.1805185,3.52928125 C13.9520741,2.76271875 13.9520741,1.518 13.1805185,0.75109375 C12.7950864,0.3678125 12.2890124,0.17565625 11.7836296,0.17565625 C11.2782469,0.17565625 10.7721728,0.3678125 10.3867407,0.75109375 L1.41879012,9.66934375 C0.646888889,10.43625 0.646888889,11.6802812 1.41879012,12.4475312 L1.41879012,12.4475312 L1.41879012,12.4475312 L1.41879012,12.4475312 Z" id="Shape" fill="#000000" transform="translate(14.692389, 11.058309) scale(-1, 1) translate(-14.692389, -11.058309) "></path>
    </g>
</svg>