<?xml version="1.0" encoding="UTF-8"?>
<svg width="28px" height="28px" viewBox="0 0 28 28" version="1.1" xmlns="http://www.w3.org/2000/svg" xmlns:xlink="http://www.w3.org/1999/xlink">
    <!-- Generator: Sketch 40.1 (33804) - http://www.bohemiancoding.com/sketch -->
    <title>DRIBBBLE</title>
    <desc>Created with Sketch.</desc>
    <defs></defs>
    <g id="Page-1" stroke="none" stroke-width="1" fill="none" fill-rule="evenodd">
        <g id="dribble" fill="#000000">
            <g id="DRIBBBLE">
                <g id="Symbols">
                    <g id="footer">
                        <path d="M23.233,6.405 C23.21113,6.4365 21.29225,9.207625 16.5725,11.13525 C16.84987,11.70575 17.11937,12.285875 17.36787,12.868625 C17.45625,13.07775 17.54288,13.2825 17.626,13.488125 C21.73325,12.971 25.77925,13.839875 25.9525,13.876625 C25.92362,11.0425 24.9095,8.442 23.233,6.405 L23.233,6.405 L23.233,6.405 Z M18.354,15.3755 C19.922,19.684875 20.559,23.1945 20.68062,23.9155 C23.36425,22.10425 25.27175,19.228125 25.80375,15.896125 C25.557,15.815625 22.21275,14.756875 18.354,15.3755 L18.354,15.3755 L18.354,15.3755 Z M18.66725,25.0075 C18.4905,23.96275 17.79662,20.30175 16.114,15.929375 C16.08687,15.939 16.06063,15.946875 16.0335,15.9565 C8.98013,18.414375 6.67625,23.370375 6.65175,23.4255 C8.68088,25.004 11.22712,25.956875 14,25.956875 C15.6555,25.955125 17.23225,25.61825 18.66725,25.0075 L18.66725,25.0075 L18.66725,25.0075 Z M15.652,9.35375 C20.16262,7.66325 21.86538,5.070625 21.89513,5.026875 C19.79075,3.171 17.02662,2.04575 14,2.04575 C13.02875,2.04575 12.0855,2.163 11.1825,2.380875 C11.36188,2.620625 13.60712,5.6 15.652,9.35375 L15.652,9.35375 L15.652,9.35375 Z M15.2985,13.948375 C14.99837,13.2685 14.67113,12.58775 14.329,11.916625 C8.1725,13.76025 2.26625,13.62725 2.0545,13.619375 C2.051,13.747125 2.044,13.871375 2.044,14 C2.044,17.07125 3.2025,19.872125 5.10738,21.987 C5.103,21.98175 8.3755,16.177 14.82687,14.090125 C14.98175,14.039375 15.141,13.993 15.2985,13.948375 L15.2985,13.948375 L15.2985,13.948375 Z M27.71387,11.181625 C27.90287,12.102125 28,13.050625 28,14 C28,14.947625 27.90375,15.894375 27.71387,16.8175 C27.52925,17.71875 27.25537,18.603375 26.8975,19.4495 C26.5475,20.279875 26.11438,21.0805 25.60687,21.826875 C25.10725,22.568875 24.5315,23.263625 23.89888,23.898875 C23.2645,24.52975 22.568,25.104625 21.82775,25.60775 C21.07963,26.11175 20.279,26.544875 19.4495,26.8975 C18.60425,27.2545 17.71875,27.5275 16.81925,27.712125 C15.89612,27.902875 14.94763,28 14,28 C13.05063,28 12.10212,27.90375 11.18075,27.712125 C10.28038,27.5275 9.39487,27.253625 8.54963,26.8975 C7.71925,26.544875 6.91863,26.11175 6.1705,25.60775 C5.43025,25.1055 4.73375,24.52975 4.10112,23.898875 C3.46762,23.263625 2.89275,22.568875 2.39225,21.826875 C1.88738,21.0805 1.4525,20.279 1.10163,19.4495 C0.74375,18.60425 0.469,17.71875 0.2835,16.8175 C0.09538,15.89525 0,14.9485 0,14 C0,13.050625 0.09538,12.102125 0.2835,11.181625 C0.469,10.280375 0.74287,9.394875 1.10075,8.5505 C1.4525,7.718375 1.8865,6.91775 2.39137,6.171375 C2.891,5.4285 3.46762,4.734625 4.10025,4.099375 C4.73287,3.467625 5.42937,2.8945 6.16962,2.39225 C6.91775,1.885625 7.71837,1.45075 8.54875,1.099 C9.394,0.741125 10.2795,0.46725 11.17988,0.2835 C12.10212,0.095375 13.05063,0 14,0 C14.94763,0 15.89612,0.095375 16.81925,0.284375 C17.71875,0.468125 18.60337,0.742 19.4495,1.099875 C20.27987,1.451625 21.07963,1.8865 21.82775,2.393125 C22.568,2.8945 23.26537,3.4685 23.89888,4.10025 C24.53063,4.7355 25.10725,5.429375 25.60687,6.17225 C26.11438,6.918625 26.54838,7.720125 26.8975,8.551375 C27.25625,9.394875 27.53012,10.280375 27.71387,11.181625 L27.71387,11.181625 L27.71387,11.181625 Z M13.3385,10.075625 C11.26913,6.398875 9.058,3.3985 8.89875,3.18675 C5.56413,4.760875 3.0765,7.833875 2.30038,11.536 C2.61538,11.53775 7.59763,11.60075 13.3385,10.075625 L13.3385,10.075625 L13.3385,10.075625 Z" id="DRIBBBLE"></path>
                    </g>
                </g>
            </g>
        </g>
    </g>
</svg>