<?xml version="1.0" encoding="UTF-8"?>
<svg width="28px" height="28px" viewBox="0 0 28 28" version="1.1" xmlns="http://www.w3.org/2000/svg" xmlns:xlink="http://www.w3.org/1999/xlink">
    <!-- Generator: Sketch 40.1 (33804) - http://www.bohemiancoding.com/sketch -->
    <title>facebook</title>
    <desc>Created with Sketch.</desc>
    <defs></defs>
    <g id="Page-1" stroke="none" stroke-width="1" fill="none" fill-rule="evenodd">
        <g id="facebook" fill="#000000">
            <g id="Symbols">
                <g>
                    <g id="footer">
                        <path d="M23.333333,0 L4.666667,0 C2.208889,0 0,2.2088889 0,4.6666667 L0,23.3333333 C0,25.7911111 2.208889,28 4.666667,28 L14,28 L14,17.4222222 L10.577778,17.4222222 L10.577778,12.7555556 L14,12.7555556 L14,10.9511111 C14,7.8088889 16.364444,4.9777778 19.257778,4.9777778 L23.022222,4.9777778 L23.022222,9.6444444 L19.257778,9.6444444 C18.853333,9.6444444 18.355556,10.1422222 18.355556,10.8888889 L18.355556,12.7555556 L23.022222,12.7555556 L23.022222,17.4222222 L18.355556,17.4222222 L18.355556,28 L23.333333,28 C25.791111,28 28,25.7911111 28,23.3333333 L28,4.6666667 C28,2.2088889 25.791111,0 23.333333,0 L23.333333,0 Z" id="facebook"></path>
                    </g>
                </g>
            </g>
        </g>
    </g>
</svg>