<?xml version="1.0" encoding="UTF-8"?>
<svg width="28px" height="28px" viewBox="0 0 28 28" version="1.1" xmlns="http://www.w3.org/2000/svg" xmlns:xlink="http://www.w3.org/1999/xlink">
    <!-- Generator: Sketch 40.3 (33839) - http://www.bohemiancoding.com/sketch -->
    <title>facebook</title>
    <desc>Created with Sketch.</desc>
    <defs></defs>
    <g id="Symbols" stroke="none" stroke-width="1" fill="none" fill-rule="evenodd">
        <g id="footer" transform="translate(-807.000000, -22.000000)" fill="#D8D8D8">
            <path d="M830.333333,22 L811.666667,22 C809.208889,22 807,24.2088889 807,26.6666667 L807,45.3333333 C807,47.7911111 809.208889,50 811.666667,50 L821,50 L821,39.4222222 L817.577778,39.4222222 L817.577778,34.7555556 L821,34.7555556 L821,32.9511111 C821,29.8088889 823.364444,26.9777778 826.257778,26.9777778 L830.022222,26.9777778 L830.022222,31.6444444 L826.257778,31.6444444 C825.853333,31.6444444 825.355556,32.1422222 825.355556,32.8888889 L825.355556,34.7555556 L830.022222,34.7555556 L830.022222,39.4222222 L825.355556,39.4222222 L825.355556,50 L830.333333,50 C832.791111,50 835,47.7911111 835,45.3333333 L835,26.6666667 C835,24.2088889 832.791111,22 830.333333,22 Z" id="facebook"></path>
        </g>
    </g>
</svg>