<?xml version="1.0" encoding="UTF-8"?>
<svg width="28px" height="28px" viewBox="0 0 28 28" version="1.1" xmlns="http://www.w3.org/2000/svg" xmlns:xlink="http://www.w3.org/1999/xlink">
    <!-- Generator: Sketch 40.1 (33804) - http://www.bohemiancoding.com/sketch -->
    <title>linkedin</title>
    <desc>Created with Sketch.</desc>
    <defs></defs>
    <g id="Page-1" stroke="none" stroke-width="1" fill="none" fill-rule="evenodd">
        <g id="linkedin" fill="#000000">
            <g id="Symbols">
                <g>
                    <g id="footer">
                        <path d="M0,3.5037255 C0,1.5686713 1.5654,0 3.50373,0 L24.49627,0 C26.43133,0 28,1.5653991 28,3.5037255 L28,24.4962745 C28,26.4313287 26.4346,28 24.49627,28 L3.50373,28 C1.56867,28 0,26.4346009 0,24.4962745 L0,3.5037255 L0,3.5037255 Z M3.33884,9.7709111 L8.02885,9.7709111 L8.02885,23.8782372 L3.33884,23.8782372 L3.33884,9.7709111 L3.33884,9.7709111 Z M5.71554,2.968472 C4.11091,2.968472 3.06251,4.0234136 3.06251,5.4060966 C3.06251,6.7597187 4.07905,7.8437211 5.65343,7.8437211 L5.68376,7.8437211 C7.31907,7.8437211 8.33697,6.7597187 8.33697,5.4060966 C8.30663,4.0234136 7.31916,2.968472 5.71554,2.968472 L5.71554,2.968472 L5.71554,2.968472 Z M19.53872,9.4391768 C17.05096,9.4391768 15.93662,10.8073294 15.31267,11.7682907 L15.31267,9.770912 L10.62385,9.770912 C10.68605,11.0941987 10.62385,23.878238 10.62385,23.878238 L15.31258,23.878238 L15.31258,15.9996982 C15.31258,15.5779765 15.34292,15.1564248 15.46723,14.855025 C15.80559,14.0128562 16.57766,13.140437 17.87308,13.140437 C19.56906,13.140437 20.2485,14.4345779 20.2485,16.3302437 L20.2485,23.878238 L24.93749,23.878238 L24.93749,15.788285 C24.93749,11.4549947 22.62392,9.4391768 19.53872,9.4391768 L19.53872,9.4391768 L19.53872,9.4391768 Z" id="linkedin"></path>
                    </g>
                </g>
            </g>
        </g>
    </g>
</svg>