<?xml version="1.0" encoding="UTF-8"?>
<svg width="28px" height="28px" viewBox="0 0 28 28" version="1.1" xmlns="http://www.w3.org/2000/svg" xmlns:xlink="http://www.w3.org/1999/xlink">
    <!-- Generator: Sketch 40.3 (33839) - http://www.bohemiancoding.com/sketch -->
    <title>linkedin</title>
    <desc>Created with Sketch.</desc>
    <defs></defs>
    <g id="Symbols" stroke="none" stroke-width="1" fill="none" fill-rule="evenodd">
        <g id="footer" transform="translate(-1013.000000, -22.000000)" fill="#D8D8D8">
            <path d="M1013,25.5037255 C1013,23.5686713 1014.5654,22 1016.50373,22 L1037.49627,22 C1039.43133,22 1041,23.5653991 1041,25.5037255 L1041,46.4962745 C1041,48.4313287 1039.4346,50 1037.49627,50 L1016.50373,50 C1014.56867,50 1013,48.4346009 1013,46.4962745 L1013,25.5037255 Z M1016.33884,31.7709111 L1021.02885,31.7709111 L1021.02885,45.8782372 L1016.33884,45.8782372 L1016.33884,31.7709111 Z M1018.71554,24.968472 C1017.11091,24.968472 1016.06251,26.0234136 1016.06251,27.4060966 C1016.06251,28.7597187 1017.07905,29.8437211 1018.65343,29.8437211 L1018.68376,29.8437211 C1020.31907,29.8437211 1021.33697,28.7597187 1021.33697,27.4060966 C1021.30663,26.0234136 1020.31916,24.968472 1018.71554,24.968472 L1018.71554,24.968472 Z M1032.53872,31.4391768 C1030.05096,31.4391768 1028.93662,32.8073294 1028.31267,33.7682907 L1028.31267,31.770912 L1023.62385,31.770912 C1023.68605,33.0941987 1023.62385,45.878238 1023.62385,45.878238 L1028.31258,45.878238 L1028.31258,37.9996982 C1028.31258,37.5779765 1028.34292,37.1564248 1028.46723,36.855025 C1028.80559,36.0128562 1029.57766,35.140437 1030.87308,35.140437 C1032.56906,35.140437 1033.2485,36.4345779 1033.2485,38.3302437 L1033.2485,45.878238 L1037.93749,45.878238 L1037.93749,37.788285 C1037.93749,33.4549947 1035.62392,31.4391768 1032.53872,31.4391768 L1032.53872,31.4391768 Z" id="linkedin"></path>
        </g>
    </g>
</svg>