<?xml version="1.0" encoding="UTF-8"?>
<svg width="60px" height="19px" viewBox="0 0 60 19" version="1.1" xmlns="http://www.w3.org/2000/svg" xmlns:xlink="http://www.w3.org/1999/xlink">
    <!-- Generator: Sketch 40.3 (33839) - http://www.bohemiancoding.com/sketch -->
    <title>belong</title>
    <desc>Created with Sketch.</desc>
    <defs></defs>
    <g id="Site" stroke="none" stroke-width="1" fill="none" fill-rule="evenodd">
        <g id="About" transform="translate(-20.000000, -30.000000)" fill="#000000">
            <path d="M22.5211726,44.1498371 L22.5211726,42.9771987 C23.029316,43.7980456 24.0456026,44.3843648 25.3745928,44.3843648 C28.1107492,44.3843648 29.9087948,42.2149837 29.9087948,39.3029316 C29.9087948,36.4495114 28.286645,34.2801303 25.4723127,34.2801303 C24.0456026,34.2801303 22.990228,34.9055375 22.5602606,35.5895765 L22.5602606,30 L20,30 L20,44.1498371 L22.5211726,44.1498371 Z M27.3094463,39.3224756 C27.3094463,41.0814332 26.2540717,42.0586319 24.9250814,42.0586319 C23.6156352,42.0586319 22.5211726,41.0618893 22.5211726,39.3224756 C22.5211726,37.5635179 23.6156352,36.6058632 24.9250814,36.6058632 C26.2540717,36.6058632 27.3094463,37.5635179 27.3094463,39.3224756 L27.3094463,39.3224756 Z M33.8566775,38.247557 C33.9153094,37.3680782 34.6579805,36.3517915 36.0065147,36.3517915 C37.4918567,36.3517915 38.1172638,37.2899023 38.1563518,38.247557 L33.8566775,38.247557 Z M38.4104235,40.7491857 C38.0977199,41.6091205 37.4332248,42.2149837 36.2214984,42.2149837 C34.9315961,42.2149837 33.8566775,41.2964169 33.7980456,40.0260586 L40.6775244,40.0260586 C40.6775244,39.9869707 40.7166124,39.5960912 40.7166124,39.2247557 C40.7166124,36.1368078 38.9381107,34.2410423 35.9674267,34.2410423 C33.504886,34.2410423 31.237785,36.2345277 31.237785,39.3029316 C31.237785,42.5472313 33.5635179,44.4429967 36.2019544,44.4429967 C38.5667752,44.4429967 40.0912052,43.0553746 40.5798046,41.3941368 L38.4104235,40.7491857 Z M45.3680782,44.1498371 L45.3680782,30 L42.7687296,30 L42.7687296,44.1498371 L45.3680782,44.1498371 Z M52.4625407,42.0781759 C51.1921824,42.0781759 50.019544,41.1400651 50.019544,39.3420195 C50.019544,37.52443 51.1921824,36.6058632 52.4625407,36.6058632 C53.732899,36.6058632 54.9055375,37.52443 54.9055375,39.3420195 C54.9055375,41.1596091 53.732899,42.0781759 52.4625407,42.0781759 L52.4625407,42.0781759 Z M52.4625407,34.2410423 C49.5895765,34.2410423 47.4201954,36.3713355 47.4201954,39.3420195 C47.4201954,42.2931596 49.5895765,44.4429967 52.4625407,44.4429967 C55.3355049,44.4429967 57.504886,42.2931596 57.504886,39.3420195 C57.504886,36.3713355 55.3355049,34.2410423 52.4625407,34.2410423 L52.4625407,34.2410423 Z M62.1563518,38.6188925 C62.1563518,37.504886 62.8208469,36.6254072 63.9543974,36.6254072 C65.2052117,36.6254072 65.732899,37.465798 65.732899,38.5407166 L65.732899,44.1498371 L68.3322476,44.1498371 L68.3322476,38.0912052 C68.3322476,35.980456 67.237785,34.2801303 64.8534202,34.2801303 C63.8175896,34.2801303 62.6644951,34.7296417 62.0781759,35.7263844 L62.0781759,34.534202 L59.5570033,34.534202 L59.5570033,44.1498371 L62.1563518,44.1498371 L62.1563518,38.6188925 Z M70.286645,44.6775244 C70.5602606,46.514658 72.3192182,48.1563518 74.9576547,48.1563518 C78.5732899,48.1563518 80,45.752443 80,43.1140065 L80,34.534202 L77.4983713,34.534202 L77.4983713,35.6677524 C77.1661238,35.0228013 76.286645,34.3583062 74.762215,34.3583062 C72.1237785,34.3583062 70.286645,36.5081433 70.286645,39.0488599 C70.286645,41.7459283 72.2019544,43.7198697 74.762215,43.7198697 C76.1498371,43.7198697 77.0488599,43.1140065 77.4397394,42.4885993 L77.4397394,43.1921824 C77.4397394,45.0488599 76.5211726,45.8697068 74.8794788,45.8697068 C73.6482085,45.8697068 72.8078176,45.1074919 72.6319218,44.0521173 L70.286645,44.6775244 Z M75.2117264,41.4918567 C73.8631922,41.4918567 72.9055375,40.5537459 72.9055375,39.0488599 C72.9055375,37.5635179 73.9218241,36.6254072 75.2117264,36.6254072 C76.4625407,36.6254072 77.4788274,37.5635179 77.4788274,39.0488599 C77.4788274,40.534202 76.5407166,41.4918567 75.2117264,41.4918567 L75.2117264,41.4918567 Z" id="belong"></path>
        </g>
    </g>
</svg>