<?xml version="1.0" encoding="UTF-8"?>
<svg width="32px" height="28px" viewBox="0 0 32 28" version="1.1" xmlns="http://www.w3.org/2000/svg" xmlns:xlink="http://www.w3.org/1999/xlink">
    <!-- Generator: Sketch 40.3 (33839) - http://www.bohemiancoding.com/sketch -->
    <title>medium</title>
    <desc>Created with Sketch.</desc>
    <defs></defs>
    <g id="Symbols" stroke="none" stroke-width="1" fill="none" fill-rule="evenodd">
        <g id="footer" transform="translate(-957.000000, -22.000000)" fill="#D8D8D8">
            <path d="M979.395225,45.0668961 L988.951736,49.9716477 C988.968676,49.9803109 988.984019,49.9869396 988.997315,49.9923213 C988.998913,49.9781451 989,49.9607531 989,49.9411952 L989,29.0422003 L979.395225,45.0668961 Z M978.794195,22 L972.013402,33.2635433 L978.534529,44.144068 L988.746023,27.1083369 L978.794195,22 Z M968.068546,39.2588085 L976.916441,43.8000994 L968.068546,29.0400345 L968.068546,39.2588085 Z M957,44.6185096 C957,44.772019 957.146837,45.01577 957.280378,45.0842881 L966.816178,49.9793264 C966.833693,49.9879896 966.849035,49.9956684 966.862268,50 C966.86393,49.9858238 966.864953,49.9684318 966.864953,49.9488083 L966.864953,27.2388757 L957.000511,22.1751674 L957,44.6185096 Z" id="medium"></path>
        </g>
    </g>
</svg>