<?xml version="1.0" encoding="UTF-8"?>
<svg width="32px" height="28px" viewBox="0 0 32 28" version="1.1" xmlns="http://www.w3.org/2000/svg" xmlns:xlink="http://www.w3.org/1999/xlink">
    <!-- Generator: Sketch 40.1 (33804) - http://www.bohemiancoding.com/sketch -->
    <title>medium</title>
    <desc>Created with Sketch.</desc>
    <defs></defs>
    <g id="Page-1" stroke="none" stroke-width="1" fill="none" fill-rule="evenodd">
        <g id="medium" fill="#000000">
            <g id="Symbols">
                <g>
                    <g id="footer">
                        <path d="M22.395225,23.0668961 L31.951736,27.9716477 C31.968676,27.9803109 31.984019,27.9869396 31.997315,27.9923213 C31.998913,27.9781451 32,27.9607531 32,27.9411952 L32,7.0422003 L22.395225,23.0668961 L22.395225,23.0668961 Z M21.794195,0 L15.013402,11.2635433 L21.534529,22.144068 L31.746023,5.1083369 L21.794195,0 L21.794195,0 Z M11.068546,17.2588085 L19.916441,21.8000994 L11.068546,7.0400345 L11.068546,17.2588085 L11.068546,17.2588085 Z M0,22.6185096 C0,22.772019 0.146837,23.01577 0.280378,23.0842881 L9.816178,27.9793264 C9.833693,27.9879896 9.849035,27.9956684 9.862268,28 C9.86393,27.9858238 9.864953,27.9684318 9.864953,27.9488083 L9.864953,5.2388757 L0.000511,0.1751674 L0,22.6185096 L0,22.6185096 Z" id="medium"></path>
                    </g>
                </g>
            </g>
        </g>
    </g>
</svg>