<?xml version="1.0" encoding="UTF-8"?>
<svg width="30px" height="24px" viewBox="0 0 30 24" version="1.1" xmlns="http://www.w3.org/2000/svg" xmlns:xlink="http://www.w3.org/1999/xlink">
    <!-- Generator: Sketch 40.1 (33804) - http://www.bohemiancoding.com/sketch -->
    <title>twitter</title>
    <desc>Created with Sketch.</desc>
    <defs></defs>
    <g id="Page-1" stroke="none" stroke-width="1" fill="none" fill-rule="evenodd">
        <g id="twitter" fill="#000000">
            <g id="Symbols">
                <g>
                    <g id="footer">
                        <path d="M30,2.8403077 C28.896287,3.3230769 27.71099,3.6489231 26.464741,3.7938462 C27.735371,3.0443077 28.711553,1.8572308 29.17198,0.4430769 C27.981995,1.1363077 26.665416,1.6421538 25.263503,1.9126154 C24.140098,0.7356923 22.540323,0 20.768942,0 C17.369655,0 14.615529,2.712 14.615529,6.0581538 C14.615529,6.5326154 14.66898,6.996 14.774006,7.4390769 C9.658665,7.1861538 5.123781,4.7741538 2.087397,1.1086154 C1.558515,2.004 1.254689,3.0443077 1.254689,4.1547692 C1.254689,6.2575385 2.341523,8.1110769 3.991935,9.1984615 C2.983871,9.1661538 2.034884,8.8947692 1.204989,8.4406154 C1.204051,8.4655385 1.204051,8.4923077 1.204051,8.5163077 C1.204051,11.4526154 3.325206,13.9015385 6.141223,14.4581538 C5.625469,14.5956923 5.081583,14.6704615 4.51988,14.6704615 C4.122281,14.6704615 3.737809,14.6326154 3.362716,14.5624615 C4.144786,16.968 6.418792,18.72 9.111028,18.7698462 C7.005814,20.3944615 4.352026,21.3646154 1.468492,21.3646154 C0.971493,21.3646154 0.481058,21.336 0,21.2796923 C2.723181,22.9966154 5.958365,24 9.434546,24 C20.754876,24 26.946737,14.7683077 26.946737,6.7615385 C26.946737,6.4993846 26.939235,6.2372308 26.927982,5.9769231 C28.131095,5.1230769 29.173856,4.0569231 30,2.8403077 L30,2.8403077 L30,2.8403077 Z" id="twitter"></path>
                    </g>
                </g>
            </g>
        </g>
    </g>
</svg>