<?xml version="1.0" encoding="UTF-8"?>
<svg width="33px" height="24px" viewBox="0 0 33 24" version="1.1" xmlns="http://www.w3.org/2000/svg" xmlns:xlink="http://www.w3.org/1999/xlink">
    <!-- Generator: Sketch 40.3 (33839) - http://www.bohemiancoding.com/sketch -->
    <title>youtube</title>
    <desc>Created with Sketch.</desc>
    <defs></defs>
    <g id="Symbols" stroke="none" stroke-width="1" fill="none" fill-rule="evenodd">
        <g id="footer" transform="translate(-1068.000000, -24.000000)" fill="#D8D8D8">
            <path d="M1100.67073,29.0850923 C1100.67073,29.0850923 1100.34807,26.7756501 1099.35843,25.7583338 C1098.10407,24.4237577 1096.69717,24.4174274 1096.0522,24.3392296 C1091.4344,24 1084.50733,24 1084.50733,24 L1084.49267,24 C1084.49267,24 1077.56597,24 1072.9478,24.3392296 C1072.30283,24.4174274 1070.89667,24.4237577 1069.64157,25.7583338 C1068.65193,26.7756501 1068.33,29.0850923 1068.33,29.0850923 C1068.33,29.0850923 1068,31.7970671 1068,34.5090419 L1068,37.0519604 C1068,39.7635627 1068.33,42.4755375 1068.33,42.4755375 C1068.33,42.4755375 1068.65193,44.7849796 1069.64157,45.802296 C1070.89667,47.1372445 1072.54557,47.0944218 1073.28,47.2344332 C1075.92037,47.4917413 1084.5,47.5714286 1084.5,47.5714286 C1084.5,47.5714286 1091.4344,47.5606298 1096.0522,47.2217726 C1096.69717,47.1435748 1098.10407,47.1372445 1099.35843,45.802296 C1100.34807,44.7849796 1100.67073,42.4755375 1100.67073,42.4755375 C1100.67073,42.4755375 1101,39.7635627 1101,37.0519604 L1101,34.5090419 C1101,31.7970671 1100.67073,29.0850923 1100.67073,29.0850923 L1100.67073,29.0850923 Z M1081.0933,40.132582 L1081.09183,30.7164477 L1090.00843,35.4407129 L1081.0933,40.132582 L1081.0933,40.132582 Z" id="youtube"></path>
        </g>
    </g>
</svg>