<?xml version="1.0" encoding="UTF-8"?>
<svg width="33px" height="24px" viewBox="0 0 33 24" version="1.1" xmlns="http://www.w3.org/2000/svg" xmlns:xlink="http://www.w3.org/1999/xlink">
    <!-- Generator: Sketch 40.1 (33804) - http://www.bohemiancoding.com/sketch -->
    <title>youtube</title>
    <desc>Created with Sketch.</desc>
    <defs></defs>
    <g id="Page-1" stroke="none" stroke-width="1" fill="none" fill-rule="evenodd">
        <g id="youtube" fill="#000000">
            <g id="Symbols">
                <g>
                    <g id="footer">
                        <path d="M32.67073,5.0850923 C32.67073,5.0850923 32.34807,2.7756501 31.35843,1.7583338 C30.10407,0.4237577 28.69717,0.4174274 28.0522,0.3392296 C23.4344,0 16.50733,0 16.50733,0 L16.49267,0 C16.49267,0 9.56597,0 4.9478,0.3392296 C4.30283,0.4174274 2.89667,0.4237577 1.64157,1.7583338 C0.65193,2.7756501 0.33,5.0850923 0.33,5.0850923 C0.33,5.0850923 0,7.7970671 0,10.5090419 L0,13.0519604 C0,15.7635627 0.33,18.4755375 0.33,18.4755375 C0.33,18.4755375 0.65193,20.7849796 1.64157,21.802296 C2.89667,23.1372445 4.54557,23.0944218 5.28,23.2344332 C7.92037,23.4917413 16.5,23.5714286 16.5,23.5714286 C16.5,23.5714286 23.4344,23.5606298 28.0522,23.2217726 C28.69717,23.1435748 30.10407,23.1372445 31.35843,21.802296 C32.34807,20.7849796 32.67073,18.4755375 32.67073,18.4755375 C32.67073,18.4755375 33,15.7635627 33,13.0519604 L33,10.5090419 C33,7.7970671 32.67073,5.0850923 32.67073,5.0850923 L32.67073,5.0850923 L32.67073,5.0850923 Z M13.0933,16.132582 L13.09183,6.7164477 L22.00843,11.4407129 L13.0933,16.132582 L13.0933,16.132582 L13.0933,16.132582 Z" id="youtube"></path>
                    </g>
                </g>
            </g>
        </g>
    </g>
</svg>